<?xml version="1.0" encoding="UTF-8"?>
<!DOCTYPE svg PUBLIC "-//W3C//DTD SVG 1.1//EN" "http://www.w3.org/Graphics/SVG/1.1/DTD/svg11.dtd">
<svg version="1.1" xmlns="http://www.w3.org/2000/svg" xmlns:xlink="http://www.w3.org/1999/xlink" x="0" y="0" width="653.748" height="128.145" viewBox="0, 0, 653.748, 128.145">
  <defs>
    <clipPath id="Clip_1">
      <path d="M211.987,25.656 L651.878,25.656 L651.878,88.719 L211.987,88.719 z"/>
    </clipPath>
  </defs>
  <g id="Layer_1">
    <g>
      <path d="M533.59,108.248 L543.596,30.12 L563.61,30.12 L573.712,108.248 L558.11,108.248 L556.843,92.853 L550.219,92.853 L548.953,108.248 z M314.812,108.212 L314.812,30.304 L341.005,30.304 L341.005,42.873 L331.218,42.873 L331.218,59.088 L341.005,59.088 L341.005,71.752 L331.218,71.752 L331.218,95.547 L341.005,95.547 L341.005,108.212 z M208.311,23.786 L224.265,23.786 C226.379,23.786 228.04,24.375 229.285,25.533 C230.531,26.692 231.34,28.42 231.717,30.737 L239.755,84.656 L255.93,23.786 L272.536,23.786 L283.413,83.295 L296.607,33.074 C296.782,32.159 296.89,31.448 296.933,30.96 C296.972,30.452 296.937,29.985 296.867,29.558 C296.712,28.602 296.302,27.83 295.616,27.241 C294.908,26.631 294.015,26.266 292.911,26.102 L293.023,23.786 L307.554,23.786 C309.403,23.786 310.822,24.01 311.793,24.477 C312.763,24.944 313.322,25.636 313.482,26.611 C313.55,27.038 313.538,27.587 313.437,28.216 C313.361,28.867 313.14,29.762 312.82,30.92 L289.918,108.294 L277.784,108.294 C275.833,108.294 274.42,107.847 273.542,106.952 C272.665,106.059 271.995,104.188 271.529,101.322 L262.584,48.947 L247.115,108.294 L234.209,108.294 C232.624,108.294 231.345,107.928 230.393,107.196 C229.441,106.465 228.815,105.367 228.492,103.884 L214.343,34.131 C213.758,31.285 213.031,29.313 212.144,28.237 C211.241,27.18 209.889,26.489 208.048,26.164 z M345.007,76.882 L361.555,76.882 L361.555,92.18 C361.555,93.56 361.748,94.538 362.117,95.131 C362.501,95.724 363.143,96.029 364.057,96.029 C364.779,96.029 365.372,95.805 365.853,95.355 C366.319,94.891 366.559,94.329 366.559,93.64 L366.559,92.18 L366.559,80.538 C366.559,78.982 366.334,77.844 365.902,77.139 C365.453,76.433 364.587,75.727 363.304,75.054 L352.222,68.88 C349.688,67.468 347.861,65.673 346.722,63.492 C345.584,61.31 345.007,58.425 345.007,54.815 L345.007,45.724 C345.007,38.731 346.064,34.306 348.181,32.43 C350.298,30.569 355.526,29.64 363.897,29.64 C371.755,29.64 376.853,30.474 379.195,32.125 C381.553,33.793 382.723,36.743 382.723,40.977 L382.723,45.724 L382.723,57.35 L366.463,57.35 L366.463,46.189 C366.463,44.649 366.27,43.622 365.902,43.11 C365.516,42.597 364.842,42.34 363.865,42.34 C363.046,42.34 362.454,42.629 362.1,43.19 C361.732,43.751 361.555,44.745 361.555,46.189 L361.555,53.598 C361.555,55.104 361.78,56.212 362.213,56.933 C362.662,57.654 363.527,58.36 364.811,59.05 L375.01,64.55 C377.8,66.025 379.788,67.773 380.959,69.794 C382.13,71.813 382.723,74.572 382.723,78.052 L382.723,95.837 C382.723,98.515 382.579,100.487 382.274,101.786 C381.986,103.101 381.457,104.207 380.703,105.154 C379.708,106.532 378.153,107.494 376.085,108.023 C373.999,108.553 370.023,108.825 364.17,108.825 C355.622,108.825 350.298,107.847 348.181,105.907 C346.064,103.967 345.007,99.541 345.007,92.644 z M395.713,108.248 L395.713,43.014 L387.245,43.014 L387.245,30.12 L420.632,30.12 L420.632,43.014 L412.166,43.014 L412.166,108.248 z M447.092,45.819 C447.092,38.539 448.15,34.034 450.251,32.269 C452.352,30.521 457.58,29.64 465.95,29.64 C474.513,29.64 479.821,30.585 481.891,32.462 C483.959,34.338 485.001,38.796 485.001,45.819 L485.001,56.677 L468.452,56.677 L468.452,46.285 C468.452,44.794 468.259,43.768 467.891,43.238 C467.506,42.709 466.801,42.436 465.757,42.436 C464.973,42.436 464.427,42.677 464.107,43.142 C463.802,43.606 463.642,44.665 463.642,46.285 L463.642,91.988 C463.642,93.431 463.818,94.441 464.187,95.035 C464.539,95.628 465.164,95.933 466.046,95.933 C466.801,95.933 467.394,95.708 467.811,95.259 C468.243,94.794 468.452,94.169 468.452,93.351 L468.452,91.988 L468.452,75.054 L485.001,75.054 L485.001,92.469 C485.001,99.637 483.943,104.159 481.81,106.035 C479.677,107.895 474.417,108.825 466.046,108.825 C457.58,108.825 452.304,107.863 450.219,105.955 C448.134,104.047 447.092,99.541 447.092,92.469 z M578.123,76.882 L594.672,76.882 L594.672,92.18 C594.672,93.56 594.864,94.538 595.234,95.131 C595.617,95.724 596.26,96.029 597.174,96.029 C597.895,96.029 598.488,95.805 598.97,95.355 C599.435,94.891 599.675,94.329 599.675,93.64 L599.675,92.18 L599.675,80.538 C599.675,78.982 599.45,77.844 599.018,77.139 C598.569,76.433 597.703,75.727 596.42,75.054 L585.338,68.88 C582.805,67.468 580.977,65.673 579.839,63.492 C578.7,61.31 578.123,58.425 578.123,54.815 L578.123,45.724 C578.123,38.731 579.181,34.306 581.298,32.43 C583.414,30.569 588.642,29.64 597.013,29.64 C604.871,29.64 609.97,30.474 612.312,32.125 C614.669,33.793 615.84,36.743 615.84,40.977 L615.84,45.724 L615.84,57.35 L599.579,57.35 L599.579,46.189 C599.579,44.649 599.386,43.622 599.018,43.11 C598.633,42.597 597.959,42.34 596.982,42.34 C596.163,42.34 595.57,42.629 595.217,43.19 C594.848,43.751 594.672,44.745 594.672,46.189 L594.672,53.598 C594.672,55.104 594.897,56.212 595.329,56.933 C595.778,57.654 596.645,58.36 597.927,59.05 L608.126,64.55 C610.916,66.025 612.904,67.773 614.075,69.794 C615.246,71.813 615.84,74.572 615.84,78.052 L615.84,95.837 C615.84,98.515 615.695,100.487 615.39,101.786 C615.102,103.101 614.572,104.207 613.819,105.154 C612.824,106.532 611.27,107.494 609.2,108.023 C607.116,108.553 603.139,108.825 597.286,108.825 C588.738,108.825 583.414,107.847 581.298,105.907 C579.181,103.967 578.123,99.541 578.123,92.644 z M628.828,108.248 L628.828,43.014 L620.361,43.014 L620.361,30.12 L653.748,30.12 L653.748,43.014 L645.282,43.014 L645.282,108.248 z M491.159,45.819 C491.159,38.539 492.217,34.034 494.35,32.269 C496.483,30.521 501.711,29.64 510.017,29.64 C518.517,29.64 523.824,30.585 525.925,32.462 C528.026,34.338 529.068,38.796 529.068,45.819 L529.068,92.453 C529.068,99.637 528.01,104.159 525.877,106.019 C523.744,107.895 518.485,108.825 510.113,108.825 C501.647,108.825 496.371,107.863 494.286,105.955 C492.201,104.047 491.159,99.541 491.159,92.453 z M507.708,46.285 L507.708,91.988 C507.708,93.463 507.884,94.49 508.254,95.066 C508.606,95.644 509.232,95.933 510.113,95.933 C510.9,95.933 511.492,95.724 511.909,95.291 C512.311,94.875 512.519,94.297 512.519,93.543 L512.519,91.988 L512.519,46.285 C512.519,44.777 512.326,43.768 511.958,43.238 C511.573,42.709 510.867,42.436 509.824,42.436 C509.135,42.436 508.606,42.644 508.254,43.077 C507.884,43.495 507.708,44.072 507.708,44.825 z M551.069,80.153 L556.088,80.153 L553.604,50.038 z" fill="#33966C"/>
      <path d="M535.715,106.378 L547.23,106.378 L548.496,90.983 L558.566,90.983 L559.832,106.378 L571.584,106.378 L567.854,77.526 C564.588,78.119 561.267,78.692 557.891,79.244 L558.119,82.024 L549.035,82.024 L549.154,80.605 C545.761,81.108 542.319,81.593 538.83,82.056 z M316.682,106.341 L339.134,106.341 L339.134,97.417 L329.348,97.417 L329.348,83.321 C325.063,82.816 320.835,82.283 316.682,81.717 z M221.219,58.622 L230.319,103.485 C230.501,104.32 230.835,105.177 231.533,105.714 C232.27,106.28 233.306,106.424 234.209,106.424 L245.669,106.424 L255.208,69.829 C252.156,69.023 249.182,68.193 246.291,67.345 L239.239,93.882 L234.74,63.696 C229.943,62.065 225.428,60.372 221.219,58.622 M268.61,73.121 L273.373,101.008 C273.556,102.081 274.084,104.834 274.877,105.643 C275.537,106.315 276.907,106.424 277.784,106.424 L288.52,106.424 L296.735,78.672 C293.442,78.114 290.201,77.535 287.017,76.938 L283.085,91.904 L280.103,75.588 C276.18,74.795 272.345,73.973 268.61,73.121 M346.877,85.173 L346.877,92.645 C346.877,95.567 347.078,102.358 349.445,104.527 C351.939,106.813 361.005,106.955 364.17,106.955 C367.396,106.955 372.502,107.007 375.623,106.211 C376.987,105.863 378.341,105.23 379.185,104.06 L379.212,104.023 L379.239,103.988 C379.856,103.215 380.232,102.333 380.449,101.371 C380.83,99.695 380.853,97.55 380.853,95.837 L380.853,87.652 C376.673,87.432 372.53,87.185 368.429,86.908 L368.429,93.64 C368.429,94.81 368.003,95.852 367.176,96.678 L367.13,96.723 C366.278,97.518 365.218,97.899 364.057,97.899 C362.632,97.899 361.338,97.368 360.528,96.118 C359.827,94.991 359.685,93.479 359.685,92.18 L359.685,86.273 C355.366,85.936 351.095,85.569 346.877,85.173 M397.583,106.378 L410.295,106.378 L410.295,88.72 C406.027,88.635 401.787,88.522 397.583,88.379 z M470.322,87.987 L470.322,93.351 C470.322,94.536 469.999,95.651 469.18,96.532 C468.358,97.417 467.24,97.803 466.046,97.803 C464.62,97.803 463.324,97.244 462.598,96.023 C461.888,94.88 461.771,93.302 461.771,91.988 L461.771,88.33 C457.535,88.481 453.264,88.602 448.963,88.693 L448.963,92.469 C448.963,95.346 449.148,102.44 451.482,104.575 C453.929,106.816 462.94,106.955 466.046,106.955 C469.182,106.955 478.074,106.821 480.577,104.628 C482.953,102.546 483.13,95.321 483.13,92.469 L483.13,87.319 C478.902,87.571 474.63,87.793 470.322,87.987 M579.993,78.753 L579.993,92.645 C579.993,95.567 580.194,102.358 582.562,104.527 C585.055,106.813 594.121,106.955 597.286,106.955 C600.512,106.955 605.618,107.007 608.738,106.211 C610.104,105.863 611.457,105.23 612.302,104.06 L612.328,104.023 L612.356,103.988 C612.972,103.215 613.348,102.333 613.567,101.371 C613.946,99.695 613.969,97.55 613.969,95.837 L613.969,78.052 C613.969,75.668 613.676,72.835 612.456,70.732 C611.819,69.633 610.904,68.693 609.877,67.892 C605.01,69.288 599.926,70.632 594.623,71.912 L597.29,73.398 C598.53,74.05 599.849,74.939 600.605,76.148 C601.386,77.399 601.546,79.095 601.546,80.538 L601.546,93.64 C601.546,94.81 601.119,95.852 600.292,96.678 L600.246,96.723 C599.395,97.518 598.335,97.899 597.174,97.899 C595.748,97.899 594.454,97.368 593.645,96.118 C592.944,94.991 592.801,93.479 592.801,92.18 L592.801,78.753 z M630.699,106.378 L643.411,106.378 L643.411,55.728 C639.489,57.56 635.246,59.337 630.699,61.054 z M493.029,86.672 L493.029,92.453 C493.029,95.33 493.214,102.439 495.549,104.575 C497.996,106.816 507.007,106.955 510.113,106.955 C513.266,106.955 522.126,106.818 524.645,104.612 C527.019,102.533 527.197,95.301 527.197,92.453 L527.197,83.498 C522.986,83.984 518.719,84.443 514.39,84.868 L514.39,93.543 C514.39,94.681 514.057,95.758 513.257,96.589 C512.419,97.459 511.301,97.803 510.113,97.803 C508.704,97.803 507.409,97.275 506.678,96.075 C505.948,94.935 505.838,93.308 505.838,91.988 L505.838,85.657 C501.616,86.024 497.347,86.363 493.029,86.672" fill="#00220F"/>
      <g clip-path="url(#Clip_1)">
        <path d="M567.854,77.526 L561.966,31.991 L545.243,31.991 L538.831,82.055 C542.32,81.592 545.761,81.108 549.155,80.604 L551.884,48.166 L555.327,48.169 L557.891,79.244 C561.267,78.692 564.588,78.119 567.854,77.526 M643.412,55.727 C639.49,57.559 635.247,59.337 630.7,61.053 L630.7,41.143 L622.233,41.143 L622.233,31.991 L651.878,31.991 L651.878,41.143 L643.412,41.143 z M609.877,67.891 C605.01,69.288 599.926,70.631 594.624,71.912 L586.25,67.246 C584.264,66.139 582.56,64.661 581.498,62.626 C580.295,60.323 579.994,57.375 579.994,54.815 L579.994,45.723 C579.994,42.881 580.178,35.912 582.536,33.832 C585.019,31.64 593.897,31.509 597.013,31.509 C600.351,31.509 608.4,31.652 611.232,33.653 C613.516,35.265 613.969,38.383 613.969,40.977 L613.969,55.479 L601.45,55.479 L601.45,46.189 C601.45,44.856 601.34,43.134 600.537,42.018 C599.667,40.858 598.341,40.469 596.982,40.469 C595.612,40.469 594.375,41.014 593.633,42.193 C592.917,43.287 592.801,44.88 592.801,46.189 L592.801,53.597 C592.801,55.031 592.971,56.66 593.734,57.908 C594.482,59.132 595.799,60.027 597.04,60.696 L607.239,66.196 C608.131,66.677 609.042,67.239 609.877,67.891 M527.198,83.498 C522.987,83.984 518.719,84.443 514.39,84.868 L514.39,46.285 C514.39,44.959 514.274,43.29 513.494,42.169 C512.611,40.957 511.222,40.565 509.825,40.565 C508.662,40.565 507.582,40.962 506.829,41.867 C506.107,42.698 505.838,43.741 505.838,44.825 L505.838,85.657 C501.617,86.024 497.347,86.363 493.03,86.672 L493.03,45.819 C493.03,43.102 493.189,35.647 495.539,33.713 C498.06,31.636 506.913,31.509 510.017,31.509 C513.137,31.509 522.205,31.646 524.679,33.856 C527.016,35.944 527.198,42.981 527.198,45.819 z M483.13,87.319 C478.902,87.571 474.63,87.793 470.323,87.987 L470.323,76.923 L483.13,76.923 z M461.771,88.33 C457.536,88.48 453.264,88.601 448.963,88.693 L448.963,45.819 C448.963,43.109 449.126,35.646 451.451,33.704 C453.93,31.631 462.883,31.509 465.951,31.509 C469.032,31.509 478.203,31.641 480.633,33.847 C482.946,35.944 483.13,42.986 483.13,45.819 L483.13,54.805 L470.323,54.805 L470.323,46.285 C470.323,44.963 470.204,43.287 469.427,42.17 C468.544,40.957 467.155,40.565 465.757,40.565 C464.489,40.565 463.306,41.008 462.567,42.08 C461.831,43.203 461.771,45.02 461.771,46.285 z M410.295,88.719 C406.027,88.634 401.788,88.521 397.583,88.379 L397.583,41.143 L389.116,41.143 L389.116,31.991 L418.762,31.991 L418.762,41.143 L410.295,41.143 z M380.853,87.652 C376.674,87.431 372.53,87.184 368.43,86.908 L368.43,80.538 C368.43,79.094 368.27,77.398 367.488,76.147 C366.732,74.938 365.415,74.049 364.174,73.397 L353.133,67.246 C351.147,66.139 349.443,64.661 348.381,62.626 C347.179,60.323 346.877,57.375 346.877,54.815 L346.877,45.723 C346.877,42.881 347.062,35.912 349.419,33.832 C351.903,31.64 360.781,31.509 363.897,31.509 C367.235,31.509 375.284,31.652 378.116,33.653 C380.399,35.265 380.853,38.383 380.853,40.977 L380.853,55.479 L368.333,55.479 L368.333,46.189 C368.333,44.856 368.224,43.134 367.42,42.018 C366.551,40.858 365.225,40.469 363.865,40.469 C362.496,40.469 361.259,41.014 360.518,42.193 C359.799,43.287 359.685,44.88 359.685,46.189 L359.685,53.597 C359.685,55.031 359.855,56.66 360.617,57.908 C361.366,59.132 362.683,60.027 363.923,60.696 L374.122,66.196 C376.112,67.269 378.185,68.738 379.341,70.731 C380.56,72.835 380.853,75.668 380.853,78.051 z M359.685,86.272 C355.366,85.935 351.095,85.569 346.877,85.172 L346.877,78.753 L359.685,78.753 z M329.349,83.321 C325.063,82.816 320.835,82.283 316.683,81.716 L316.683,32.174 L339.135,32.174 L339.135,41.002 L329.349,41.002 L329.349,60.958 L339.135,60.958 L339.135,69.881 L329.349,69.881 z M296.735,78.672 C293.442,78.114 290.202,77.535 287.018,76.937 L298.432,33.488 L298.444,33.426 C298.589,32.672 298.735,31.88 298.798,31.113 C298.849,30.49 298.814,29.874 298.714,29.257 C298.494,27.902 297.881,26.721 296.837,25.823 C296.771,25.765 296.704,25.71 296.635,25.656 L307.555,25.656 C308.549,25.656 310.067,25.721 310.98,26.162 C311.339,26.335 311.57,26.507 311.635,26.911 C311.684,27.213 311.638,27.623 311.59,27.922 L311.58,27.996 C311.488,28.774 311.227,29.665 311.018,30.421 z M280.103,75.588 C276.18,74.795 272.345,73.972 268.61,73.121 L262.966,40.068 L255.208,69.829 C252.156,69.022 249.182,68.193 246.291,67.344 L257.369,25.656 L270.977,25.656 z M234.74,63.696 C229.943,62.065 225.428,60.372 221.219,58.622 L216.177,33.758 C215.741,31.609 215.007,28.771 213.589,27.047 C213.113,26.491 212.573,26.032 211.988,25.656 L224.266,25.656 C225.639,25.656 226.982,25.944 228.012,26.903 C229.132,27.945 229.633,29.57 229.872,31.037 z" fill="#79D592"/>
      </g>
    </g>
    <path d="M248.1,118.484 L248.1,119.233 Q248.1,120.862 246.977,121.714 Q245.853,122.566 243.494,122.566 L235.555,122.566 L235.555,128.145 L234.039,128.145 L234.039,115.151 L243.494,115.151 Q245.835,115.151 246.968,116.012 Q248.1,116.873 248.1,118.484 z M235.555,116.499 L235.555,121.217 L243.419,121.217 Q245.179,121.217 245.872,120.721 Q246.565,120.225 246.565,119.176 L246.565,118.54 Q246.565,117.491 245.928,117.023 Q245.198,116.499 243.419,116.499 z" fill="#000000"/>
    <path d="M270.326,118.54 Q270.326,119.776 269.951,120.394 Q269.652,120.88 269.034,121.105 Q269.82,121.255 270.344,121.929 Q271.018,122.809 271.018,124.326 L271.018,128.145 L269.483,128.145 L269.483,124.344 Q269.483,123.071 268.884,122.594 Q268.285,122.116 266.543,122.116 L257.163,122.116 L257.163,128.145 L255.721,128.145 L255.721,115.151 L265.738,115.151 Q268.135,115.151 269.23,115.965 Q270.326,116.78 270.326,118.54 z M257.163,120.656 L266,120.656 Q267.573,120.656 268.238,120.15 Q268.903,119.645 268.903,118.633 Q268.903,117.679 268.238,117.136 Q267.573,116.593 266.113,116.593 L257.163,116.593 z" fill="#000000"/>
    <path d="M285.473,128.145 Q281.186,128.145 279.875,127.022 Q278.564,125.898 278.564,122.191 L278.564,121.068 Q278.564,117.342 279.866,116.209 Q281.167,115.076 285.473,115.076 L287.645,115.076 Q291.914,115.076 293.216,116.209 Q294.517,117.342 294.517,121.068 L294.517,122.191 Q294.517,125.88 293.216,127.012 Q291.914,128.145 287.645,128.145 z M293.113,122.191 L293.113,121.068 Q293.113,117.941 292.214,117.192 Q291.315,116.443 287.627,116.443 L285.473,116.443 Q281.766,116.443 280.867,117.192 Q279.969,117.941 279.969,121.068 L279.969,122.191 Q279.969,125.28 280.867,126.029 Q281.766,126.778 285.473,126.778 L287.627,126.778 Q291.334,126.778 292.223,126.039 Q293.113,125.299 293.113,122.191 z" fill="#000000"/>
    <path d="M316.143,118.484 L316.143,119.233 Q316.143,120.862 315.02,121.714 Q313.896,122.566 311.537,122.566 L303.598,122.566 L303.598,128.145 L302.082,128.145 L302.082,115.151 L311.537,115.151 Q313.878,115.151 315.011,116.012 Q316.143,116.873 316.143,118.484 z M303.598,116.499 L303.598,121.217 L311.462,121.217 Q313.222,121.217 313.915,120.721 Q314.608,120.225 314.608,119.176 L314.608,118.54 Q314.608,117.491 313.971,117.023 Q313.241,116.499 311.462,116.499 z" fill="#000000"/>
    <path d="M323.689,115.151 L335.822,115.151 L335.822,116.499 L325.112,116.499 L325.112,120.768 L335.485,120.768 L335.485,122.116 L325.112,122.116 L325.112,126.797 L335.822,126.797 L335.822,128.145 L323.689,128.145 z" fill="#000000"/>
    <path d="M358.46,118.54 Q358.46,119.776 358.085,120.394 Q357.786,120.88 357.168,121.105 Q357.954,121.255 358.478,121.929 Q359.152,122.809 359.152,124.326 L359.152,128.145 L357.617,128.145 L357.617,124.344 Q357.617,123.071 357.018,122.594 Q356.419,122.116 354.677,122.116 L345.297,122.116 L345.297,128.145 L343.855,128.145 L343.855,115.151 L353.872,115.151 Q356.269,115.151 357.364,115.965 Q358.46,116.78 358.46,118.54 z M345.297,120.656 L354.134,120.656 Q355.707,120.656 356.372,120.15 Q357.037,119.645 357.037,118.633 Q357.037,117.679 356.372,117.136 Q355.707,116.593 354.247,116.593 L345.297,116.593 z" fill="#000000"/>
    <path d="M380.835,115.151 L380.835,116.499 L374.169,116.499 L374.169,128.145 L372.746,128.145 L372.746,116.499 L366.08,116.499 L366.08,115.151 z" fill="#000000"/>
    <path d="M388.811,115.151 L394.691,120.768 L400.57,115.151 L402.555,115.151 L395.458,121.929 L395.458,128.145 L393.923,128.145 L393.923,121.929 L386.826,115.151 z" fill="#000000"/>
    <path d="M419.088,115.151 L422.29,115.151 L429.012,126.235 L435.921,115.151 L438.954,115.151 L438.954,128.145 L437.55,128.145 L437.55,116.181 L436.782,116.181 L429.442,128.145 L428.469,128.145 L421.26,116.181 L420.492,116.181 L420.492,128.145 L419.088,128.145 z" fill="#000000"/>
    <path d="M452.885,115.151 L455.075,115.151 L462.153,128.145 L460.505,128.145 L458.801,125.018 L449.102,125.018 L447.399,128.145 L445.807,128.145 z M453.971,116.106 L449.87,123.67 L458.09,123.67 z" fill="#000000"/>
    <path d="M468.987,115.151 L472.114,115.151 L482.637,126.797 L482.637,115.151 L484.041,115.151 L484.041,128.145 L482.001,128.145 L471.159,116.181 L470.392,116.181 L470.392,128.145 L468.987,128.145 z" fill="#000000"/>
    <path d="M497.86,115.151 L500.05,115.151 L507.128,128.145 L505.48,128.145 L503.777,125.018 L494.078,125.018 L492.374,128.145 L490.782,128.145 z M498.946,116.106 L494.845,123.67 L503.065,123.67 z" fill="#000000"/>
    <path d="M513.756,122.191 L513.756,121.011 Q513.756,117.473 515.095,116.246 Q516.434,115.02 520.141,115.02 L524.785,115.02 Q529.728,115.02 529.728,118.708 L528.305,118.708 Q528.305,117.547 527.556,116.986 Q526.713,116.368 524.785,116.368 L519.935,116.368 Q516.996,116.368 516.088,117.22 Q515.179,118.072 515.179,120.993 L515.179,122.191 Q515.179,125.168 515.985,125.992 Q516.79,126.816 519.58,126.816 L524.785,126.816 Q526.882,126.816 527.547,126.179 Q528.211,125.543 528.211,123.333 L521.527,123.333 L521.527,121.985 L529.747,121.985 Q529.747,125.786 528.867,126.928 Q527.93,128.145 524.785,128.145 L519.748,128.145 Q516.153,128.145 514.955,126.984 Q513.756,125.823 513.756,122.191 z" fill="#000000"/>
    <path d="M537.18,115.151 L549.313,115.151 L549.313,116.499 L538.603,116.499 L538.603,120.768 L548.976,120.768 L548.976,122.116 L538.603,122.116 L538.603,126.797 L549.313,126.797 L549.313,128.145 L537.18,128.145 z" fill="#000000"/>
    <path d="M557.234,115.151 L560.435,115.151 L567.157,126.235 L574.066,115.151 L577.1,115.151 L577.1,128.145 L575.695,128.145 L575.695,116.181 L574.928,116.181 L567.588,128.145 L566.614,128.145 L559.406,116.181 L558.638,116.181 L558.638,128.145 L557.234,128.145 z" fill="#000000"/>
    <path d="M584.983,115.151 L597.116,115.151 L597.116,116.499 L586.406,116.499 L586.406,120.768 L596.779,120.768 L596.779,122.116 L586.406,122.116 L586.406,126.797 L597.116,126.797 L597.116,128.145 L584.983,128.145 z" fill="#000000"/>
    <path d="M605.055,115.151 L608.182,115.151 L618.704,126.797 L618.704,115.151 L620.109,115.151 L620.109,128.145 L618.068,128.145 L607.227,116.181 L606.459,116.181 L606.459,128.145 L605.055,128.145 z" fill="#000000"/>
    <path d="M641.885,115.151 L641.885,116.499 L635.219,116.499 L635.219,128.145 L633.796,128.145 L633.796,116.499 L627.13,116.499 L627.13,115.151 z" fill="#000000"/>
    <g>
      <path d="M115.083,128.145 L104.227,116.627 L123.281,66.37 L146.81,50.001 L183.256,45.526 L186.747,41.89 L184.514,30.635 L176.734,25.449 L177.371,17.903 L163.56,9.208 L159.469,15.346 L157.959,-0 L149.934,9.712 L117.13,17.27 L44.89,17.903 L11.129,46.549 L8.06,105.885 L14.71,128.016 L41.82,128.016 L26.001,118.882 L45.402,92.84 L43.354,72.38 L52.818,89.004 L76.86,89.004 L83.251,72.125 L81.974,107.162 L90.448,128.07 z M169.947,24.175 L158.31,22.511 L166.751,29.417 z" fill="#3DA779"/>
      <path d="M188.553,40.008 L192.464,35.934 L187.308,32.497 z" fill="#063B25"/>
      <path d="M0,41.434 L7.516,60.495 L8.695,45.27 L28.198,27.921 z" fill="#00220F"/>
      <g>
        <path d="M73.596,95.335 L54.67,95.335 L46.358,104.276 L61.063,128.071 L81.651,128.071 L69.886,115.417 z" fill="#3DA779"/>
        <path d="M136.453,67.136 L136.963,95.27 L129.802,118.8 L144.509,128.141 L120.084,128.141 L111.645,114.579 L128.425,72.272 z" fill="#3DA779"/>
        <path d="M136.457,67.419 L136.963,95.269 L129.802,118.8 L144.509,128.141 L131.404,128.141 L121.947,119.324 z M115.083,128.145 L104.228,116.628 L123.281,66.369 L146.811,50.002 L183.256,45.525 L186.745,41.891 L184.515,30.635 L176.734,25.449 L177.371,17.904 L163.561,9.209 L159.469,15.346 L157.96,0 L150.23,9.354 L105.059,57.283 L92.65,113.222 L103.854,128.111 z M169.948,24.174 L158.311,22.511 L166.75,29.418 z M25.774,128.016 L41.821,128.016 L26,118.883 L45.401,92.841 L43.355,72.381 L52.818,89.004 L76.859,89.004 L83.252,72.124 L59.596,79.255 L31.116,41.827 L30.304,87.393 L15.861,116.685 C15.861,116.685 21.672,123.313 25.774,128.016 M73.597,95.335 L61.451,95.335 L59.393,116.074 L70.693,128.073 L81.652,128.073 L69.887,115.418 z" fill="#00220F"/>
        <path d="M166.662,8.359 L163.625,1.232 L159.955,3.634 L160.267,6.803 z" fill="#257051"/>
      </g>
    </g>
  </g>
</svg>
