<svg id="Layer_1" data-name="Layer 1" xmlns="http://www.w3.org/2000/svg" viewBox="0 0 417.39 58.7"><defs><style>.cls-1{fill:#ea5831;}.cls-2{fill:#282f2f;}</style></defs><title>PushPropertiesLogo_SVG</title><path class="cls-1" d="M285.28,304.83a13.1,13.1,0,0,1-3.63,4.62,15.85,15.85,0,0,1-5.39,2.78,22.83,22.83,0,0,1-6.62.93h-7v12.58H253.4V283.8h17.14a20.16,20.16,0,0,1,6.74,1.05,14.28,14.28,0,0,1,5,3,12.93,12.93,0,0,1,3.18,4.58,15.2,15.2,0,0,1,1.11,5.9v.12A14.65,14.65,0,0,1,285.28,304.83Zm-8-6.35a5.72,5.72,0,0,0-2-4.73,8.48,8.48,0,0,0-5.48-1.62h-7.13V305h7.31a7.53,7.53,0,0,0,5.39-1.82,6,6,0,0,0,1.92-4.53Z" transform="translate(-175.45 -277.6)"/><path class="cls-1" d="M331,315.8a15.75,15.75,0,0,1-3.68,5.9,15,15,0,0,1-5.81,3.53,23.42,23.42,0,0,1-7.61,1.17q-8.44,0-13.3-4.67t-4.86-14v-24H305v23.73q0,5.14,2.4,7.76a8.55,8.55,0,0,0,6.65,2.6,8.74,8.74,0,0,0,6.65-2.51c1.6-1.68,2.39-4.2,2.39-7.55v-24h9.23v23.67A24.3,24.3,0,0,1,331,315.8Z" transform="translate(-175.45 -277.6)"/><path class="cls-1" d="M373.9,318.88a11.43,11.43,0,0,1-3.15,4.08,14,14,0,0,1-4.84,2.51,20.92,20.92,0,0,1-6.22.87,27.7,27.7,0,0,1-9.4-1.65,24.61,24.61,0,0,1-8.39-5.06l5.45-6.53a27.36,27.36,0,0,0,5.9,3.72,15.79,15.79,0,0,0,6.62,1.37,8.16,8.16,0,0,0,4.47-1,3.32,3.32,0,0,0,1.58-2.91v-.12a3.64,3.64,0,0,0-.33-1.59,3.33,3.33,0,0,0-1.26-1.29,13.25,13.25,0,0,0-2.58-1.19,44.11,44.11,0,0,0-4.3-1.26,52.29,52.29,0,0,1-5.76-1.74,16.14,16.14,0,0,1-4.39-2.37,9.47,9.47,0,0,1-2.79-3.5,12.2,12.2,0,0,1-1-5.21v-.12a12.11,12.11,0,0,1,1.07-5.19,11.8,11.8,0,0,1,3-4,13.5,13.5,0,0,1,4.62-2.58,18.58,18.58,0,0,1,5.93-.9,25,25,0,0,1,8.47,1.38,24.43,24.43,0,0,1,7.1,4l-4.79,6.95a30.36,30.36,0,0,0-5.51-3,14.1,14.1,0,0,0-5.39-1.11,6.53,6.53,0,0,0-4,1,3.19,3.19,0,0,0-1.35,2.61v.12a3.75,3.75,0,0,0,.39,1.76,3.51,3.51,0,0,0,1.42,1.35,13.27,13.27,0,0,0,2.79,1.14q1.77.54,4.47,1.26a42.42,42.42,0,0,1,5.68,1.89,15.86,15.86,0,0,1,4.21,2.51,9.61,9.61,0,0,1,2.58,3.45,11.68,11.68,0,0,1,.87,4.73v.12A13,13,0,0,1,373.9,318.88Z" transform="translate(-175.45 -277.6)"/><path class="cls-1" d="M412.3,325.74V308.91h-17v16.83h-9.22V283.8h9.22v16.6h17V283.8h9.23v41.94Z" transform="translate(-175.45 -277.6)"/><path class="cls-2" d="M455.12,292.41a5.28,5.28,0,0,1-1.5,1.9,6.17,6.17,0,0,1-2.22,1.15,9.29,9.29,0,0,1-2.73.39h-2.89V301H442v-17.3H449a8.28,8.28,0,0,1,2.78.43,6,6,0,0,1,2.08,1.22,5.58,5.58,0,0,1,1.31,1.89,6.42,6.42,0,0,1,.45,2.44v0A6.1,6.1,0,0,1,455.12,292.41Zm-3.31-2.62a2.38,2.38,0,0,0-.83-2,3.54,3.54,0,0,0-2.26-.67h-2.94v5.29h3a3.12,3.12,0,0,0,2.23-.75,2.51,2.51,0,0,0,.79-1.87Z" transform="translate(-175.45 -277.6)"/><path class="cls-2" d="M470.79,301l-3.71-5.54h-3V301h-3.81v-17.3h7.91a7,7,0,0,1,4.81,1.51,5.29,5.29,0,0,1,1.71,4.2v.05a5.43,5.43,0,0,1-1,3.42,5.94,5.94,0,0,1-2.68,1.94l4.22,6.18Zm.07-11.4a2.19,2.19,0,0,0-.79-1.85,3.51,3.51,0,0,0-2.2-.62h-3.78v5h3.85a3.17,3.17,0,0,0,2.17-.67,2.25,2.25,0,0,0,.75-1.78Z" transform="translate(-175.45 -277.6)"/><path class="cls-2" d="M496.88,295.86a8.91,8.91,0,0,1-4.83,4.77,9.53,9.53,0,0,1-3.7.7,9.43,9.43,0,0,1-3.68-.7,9.24,9.24,0,0,1-2.9-1.9,8.41,8.41,0,0,1-1.9-2.82,8.77,8.77,0,0,1-.68-3.47v-.05a8.7,8.7,0,0,1,.69-3.47,8.74,8.74,0,0,1,4.83-4.77,9.94,9.94,0,0,1,7.38,0,9.18,9.18,0,0,1,2.9,1.9,8.56,8.56,0,0,1,1.9,2.82,8.91,8.91,0,0,1,.68,3.47v.05A8.77,8.77,0,0,1,496.88,295.86Zm-3.29-3.47a5.67,5.67,0,0,0-.38-2.1,5.24,5.24,0,0,0-1.09-1.73,5.11,5.11,0,0,0-1.67-1.18,5.43,5.43,0,0,0-4.21,0,4.89,4.89,0,0,0-1.63,1.16,5.51,5.51,0,0,0-1.06,1.72,5.58,5.58,0,0,0-.38,2.09v.05a5.67,5.67,0,0,0,.38,2.1,5.19,5.19,0,0,0,1.09,1.73,5.26,5.26,0,0,0,1.65,1.17,5,5,0,0,0,2.11.43,5.18,5.18,0,0,0,2.1-.42,4.74,4.74,0,0,0,1.65-1.16,5.47,5.47,0,0,0,1.06-1.72,5.53,5.53,0,0,0,.38-2.08Z" transform="translate(-175.45 -277.6)"/><path class="cls-2" d="M515.91,292.41a5.51,5.51,0,0,1-1.5,1.9,6.26,6.26,0,0,1-2.22,1.15,9.29,9.29,0,0,1-2.73.39h-2.89V301h-3.81v-17.3h7.07a8.32,8.32,0,0,1,2.78.43,6.07,6.07,0,0,1,2.07,1.22,5.31,5.31,0,0,1,1.31,1.89,6.24,6.24,0,0,1,.46,2.44v0A6.1,6.1,0,0,1,515.91,292.41Zm-3.32-2.62a2.37,2.37,0,0,0-.82-2,3.56,3.56,0,0,0-2.26-.67h-2.94v5.29h3a3.07,3.07,0,0,0,2.22-.75,2.47,2.47,0,0,0,.79-1.87Z" transform="translate(-175.45 -277.6)"/><path class="cls-2" d="M521.07,301v-17.3h13v3.38h-9.26v3.51H533V294h-8.15v3.63h9.39V301Z" transform="translate(-175.45 -277.6)"/><path class="cls-2" d="M549.93,301l-3.7-5.54h-3V301h-3.81v-17.3h7.91a7,7,0,0,1,4.8,1.51,5.27,5.27,0,0,1,1.72,4.2v.05a5.38,5.38,0,0,1-1,3.42,5.88,5.88,0,0,1-2.68,1.94l4.23,6.18Zm.08-11.4a2.2,2.2,0,0,0-.8-1.85,3.48,3.48,0,0,0-2.19-.62h-3.78v5h3.85a3.12,3.12,0,0,0,2.16-.67,2.25,2.25,0,0,0,.76-1.78Z" transform="translate(-175.45 -277.6)"/><path class="cls-2" d="M566.93,287.25V301h-3.8V287.25h-5.27v-3.51h14.33v3.51Z" transform="translate(-175.45 -277.6)"/><path class="cls-2" d="M454,322.91a4.59,4.59,0,0,1-1.3,1.68,5.8,5.8,0,0,1-2,1,8.68,8.68,0,0,1-2.57.36,11.53,11.53,0,0,1-3.88-.68,10.22,10.22,0,0,1-3.46-2.09l2.25-2.69a11.43,11.43,0,0,0,2.43,1.53,6.56,6.56,0,0,0,2.74.57,3.32,3.32,0,0,0,1.84-.43,1.38,1.38,0,0,0,.65-1.2V321a1.39,1.39,0,0,0-.14-.66,1.44,1.44,0,0,0-.52-.53,5.36,5.36,0,0,0-1.06-.49,17.64,17.64,0,0,0-1.77-.52,19.31,19.31,0,0,1-2.38-.72,6.6,6.6,0,0,1-1.81-1,3.88,3.88,0,0,1-1.15-1.45,5,5,0,0,1-.41-2.15v0a5,5,0,0,1,.44-2.13,4.92,4.92,0,0,1,1.24-1.65,5.62,5.62,0,0,1,1.91-1.06,7.57,7.57,0,0,1,2.44-.37,10.26,10.26,0,0,1,3.49.57,10,10,0,0,1,2.93,1.63l-2,2.86a12.9,12.9,0,0,0-2.28-1.24,5.7,5.7,0,0,0-2.22-.46,2.69,2.69,0,0,0-1.67.43,1.32,1.32,0,0,0-.55,1.08v.05a1.54,1.54,0,0,0,.16.73,1.41,1.41,0,0,0,.58.55,5.2,5.2,0,0,0,1.15.47c.49.15,1.1.32,1.85.52a17.8,17.8,0,0,1,2.34.78,6.46,6.46,0,0,1,1.73,1,3.9,3.9,0,0,1,1.07,1.42,4.78,4.78,0,0,1,.36,1.95v.05A5.31,5.31,0,0,1,454,322.91Z" transform="translate(-175.45 -277.6)"/><path class="cls-2" d="M459.59,325.74V308.45h13v3.38h-9.26v3.51h8.15v3.39h-8.15v3.63h9.39v3.38Z" transform="translate(-175.45 -277.6)"/><path class="cls-2" d="M488.45,325.74l-3.7-5.53h-3v5.53H478V308.45h7.91a7,7,0,0,1,4.8,1.5,5.29,5.29,0,0,1,1.72,4.2v.05a5.46,5.46,0,0,1-1,3.43,6.07,6.07,0,0,1-2.68,1.94l4.22,6.17Zm.08-11.39a2.22,2.22,0,0,0-.79-1.85,3.51,3.51,0,0,0-2.2-.62h-3.78v5h3.85a3.12,3.12,0,0,0,2.16-.67,2.24,2.24,0,0,0,.76-1.78Z" transform="translate(-175.45 -277.6)"/><path class="cls-2" d="M506.49,325.87h-3.36l-7-17.42h4.2l4.52,12.18,4.52-12.18h4.1Z" transform="translate(-175.45 -277.6)"/><path class="cls-2" d="M518.13,325.74V308.45h3.81v17.29Z" transform="translate(-175.45 -277.6)"/><path class="cls-2" d="M541.88,324.24a8.08,8.08,0,0,1-1.57,1,8.21,8.21,0,0,1-1.87.62,11.17,11.17,0,0,1-2.27.21,9,9,0,0,1-3.54-.69,8.58,8.58,0,0,1-4.67-4.72,9.22,9.22,0,0,1-.66-3.49v-.05a8.9,8.9,0,0,1,2.52-6.31,8.71,8.71,0,0,1,2.84-1.93,9.22,9.22,0,0,1,3.66-.7,11.63,11.63,0,0,1,2.21.2,9.15,9.15,0,0,1,1.81.54,7.61,7.61,0,0,1,1.51.84,10.33,10.33,0,0,1,1.29,1.09l-2.43,2.79a8.81,8.81,0,0,0-2.06-1.43,5.21,5.21,0,0,0-2.36-.52,4.83,4.83,0,0,0-2,.42,4.88,4.88,0,0,0-1.6,1.16,5.33,5.33,0,0,0-1,1.72,5.74,5.74,0,0,0-.37,2.09v0a5.89,5.89,0,0,0,.37,2.11,5.3,5.3,0,0,0,1,1.72,4.85,4.85,0,0,0,1.58,1.18,4.75,4.75,0,0,0,2,.43,5.32,5.32,0,0,0,2.51-.54,9.78,9.78,0,0,0,2-1.49l2.42,2.45A12.73,12.73,0,0,1,541.88,324.24Z" transform="translate(-175.45 -277.6)"/><path class="cls-2" d="M548.1,325.74V308.45h13v3.38h-9.27v3.51H560v3.39h-8.15v3.63h9.39v3.38Z" transform="translate(-175.45 -277.6)"/><path class="cls-2" d="M578.5,322.91a4.7,4.7,0,0,1-1.3,1.68,5.8,5.8,0,0,1-2,1,8.68,8.68,0,0,1-2.57.36,11.53,11.53,0,0,1-3.88-.68,10.22,10.22,0,0,1-3.46-2.09l2.25-2.69a11.43,11.43,0,0,0,2.43,1.53,6.55,6.55,0,0,0,2.73.57,3.33,3.33,0,0,0,1.85-.43,1.38,1.38,0,0,0,.65-1.2V321a1.53,1.53,0,0,0-.14-.66,1.44,1.44,0,0,0-.52-.53,5.36,5.36,0,0,0-1.06-.49,17.64,17.64,0,0,0-1.77-.52,19.31,19.31,0,0,1-2.38-.72,6.46,6.46,0,0,1-1.81-1,3.88,3.88,0,0,1-1.15-1.45,4.88,4.88,0,0,1-.41-2.15v0a5,5,0,0,1,.44-2.13,4.79,4.79,0,0,1,1.24-1.65,5.62,5.62,0,0,1,1.91-1.06,7.53,7.53,0,0,1,2.44-.37,10.26,10.26,0,0,1,3.49.57,10,10,0,0,1,2.93,1.63l-2,2.86a12.9,12.9,0,0,0-2.28-1.24,5.7,5.7,0,0,0-2.22-.46,2.69,2.69,0,0,0-1.67.43,1.33,1.33,0,0,0-.56,1.08v.05a1.54,1.54,0,0,0,.17.73,1.41,1.41,0,0,0,.58.55,5.2,5.2,0,0,0,1.15.47c.49.15,1.1.32,1.85.52a17.8,17.8,0,0,1,2.34.78,6.46,6.46,0,0,1,1.73,1,3.9,3.9,0,0,1,1.07,1.42,4.78,4.78,0,0,1,.36,1.95v.05A5.31,5.31,0,0,1,578.5,322.91Z" transform="translate(-175.45 -277.6)"/><polygon class="cls-1" points="37.13 0 23.99 0.02 45.87 20.92 24.32 41.85 37.13 41.85 58.67 20.92 37.13 0"/><polygon class="cls-1" points="34.68 20.92 12.91 0 0 0.02 21.87 20.92 0.33 41.85 0.33 58.7 10.11 58.7 10.11 44.79 34.68 20.92"/><path class="cls-2" d="M586.17,294.12V301h-3.81V294.2l-6.67-10.51h4.46l4.14,7,4.21-7h4.34Z" transform="translate(-175.45 -277.6)"/></svg>